<svg width="1000" height="800" viewBox="0 0 1000 800" fill="none" xmlns="http://www.w3.org/2000/svg">
<rect width="1000" height="800" fill="#1E1E1E"/>
<rect width="1000" height="800" rx="32" fill="#FFFDFB"/>
<rect x="49.25" y="570.25" width="723.5" height="179.5" rx="32.75" fill="#C3AE96" fill-opacity="0.2" stroke="#C3AE96" stroke-width="0.5"/>
<rect x="49.25" y="630.25" width="399.5" height="119.5" rx="32.75" fill="#C3AE96" fill-opacity="0.2" stroke="#C3AE96" stroke-width="0.5"/>
<path d="M96.25 607C96.25 601.615 100.615 597.25 106 597.25H111C116.385 597.25 120.75 601.615 120.75 607V623.75H96.25V607Z" fill="#FFFDFB" stroke="#C3AE96" stroke-width="0.5"/>
<path d="M136.25 607C136.25 601.615 140.615 597.25 146 597.25H151C156.385 597.25 160.75 601.615 160.75 607V623.75H136.25V607Z" fill="#FFFDFB" stroke="#C3AE96" stroke-width="0.5"/>
<path d="M176.25 607C176.25 601.615 180.615 597.25 186 597.25H191C196.385 597.25 200.75 601.615 200.75 607V623.75H176.25V607Z" fill="#FFFDFB" stroke="#C3AE96" stroke-width="0.5"/>
<path d="M216.25 607C216.25 601.615 220.615 597.25 226 597.25H231C236.385 597.25 240.75 601.615 240.75 607V623.75H216.25V607Z" fill="#FFFDFB" stroke="#C3AE96" stroke-width="0.5"/>
<path d="M256.25 607C256.25 601.615 260.615 597.25 266 597.25H271C276.385 597.25 280.75 601.615 280.75 607V623.75H256.25V607Z" fill="#FFFDFB" stroke="#C3AE96" stroke-width="0.5"/>
<path d="M296.25 607C296.25 601.615 300.615 597.25 306 597.25H311C316.385 597.25 320.75 601.615 320.75 607V623.75H296.25V607Z" fill="#FFFDFB" stroke="#C3AE96" stroke-width="0.5"/>
<path d="M336.25 607C336.25 601.615 340.615 597.25 346 597.25H351C356.385 597.25 360.75 601.615 360.75 607V623.75H336.25V607Z" fill="#FFFDFB" stroke="#C3AE96" stroke-width="0.5"/>
<path d="M376.25 607C376.25 601.615 380.615 597.25 386 597.25H391C396.385 597.25 400.75 601.615 400.75 607V623.75H376.25V607Z" fill="#FFFDFB" stroke="#C3AE96" stroke-width="0.5"/>
<path d="M235.159 706V697.273H238.104C238.672 697.273 239.145 697.372 239.523 697.571C239.903 697.77 240.189 698.041 240.379 698.385C240.57 698.729 240.665 699.119 240.665 699.557C240.665 699.92 240.604 700.232 240.482 700.49C240.359 700.749 240.193 700.957 239.983 701.116C239.773 701.276 239.538 701.391 239.28 701.462V701.53C239.561 701.55 239.834 701.649 240.098 701.828C240.362 702.004 240.58 702.251 240.75 702.57C240.92 702.888 241.006 703.268 241.006 703.712C241.006 704.152 240.908 704.545 240.712 704.892C240.516 705.236 240.214 705.507 239.808 705.706C239.405 705.902 238.891 706 238.266 706H235.159ZM235.956 705.284H238.266C238.939 705.284 239.436 705.135 239.757 704.837C240.081 704.538 240.243 704.163 240.243 703.712C240.243 703.379 240.162 703.078 240 702.808C239.841 702.536 239.615 702.32 239.322 702.161C239.033 702.001 238.692 701.922 238.3 701.922H235.956V705.284ZM235.956 701.214H238.176C238.52 701.214 238.821 701.143 239.08 701.001C239.338 700.859 239.54 700.663 239.685 700.413C239.83 700.163 239.902 699.878 239.902 699.557C239.902 699.094 239.751 698.717 239.45 698.428C239.149 698.135 238.7 697.989 238.104 697.989H235.956V701.214ZM245.341 706H244.506L247.681 697.273H248.533L251.708 706H250.873L248.137 698.308H248.077L245.341 706ZM245.942 702.655H250.272V703.371H245.942V702.655ZM255.604 706V697.273H258.42C259.04 697.273 259.557 697.385 259.972 697.609C260.389 697.831 260.703 698.139 260.913 698.534C261.126 698.926 261.233 699.376 261.233 699.885C261.233 700.393 261.126 700.842 260.913 701.232C260.703 701.621 260.391 701.925 259.976 702.143C259.561 702.362 259.047 702.472 258.433 702.472H256.034V701.743H258.412C258.866 701.743 259.244 701.668 259.545 701.517C259.849 701.366 260.075 701.152 260.223 700.874C260.374 700.595 260.449 700.266 260.449 699.885C260.449 699.504 260.374 699.172 260.223 698.888C260.072 698.601 259.845 698.379 259.541 698.223C259.24 698.067 258.859 697.989 258.399 697.989H256.4V706H255.604ZM259.452 702.062L261.599 706H260.679L258.552 702.062H259.452Z" fill="#090000"/>
<rect x="519" y="715" width="200" height="20" rx="8" fill="#C3AE96"/>
<path d="M580.898 699.455C580.849 698.969 580.635 698.582 580.254 698.295C579.874 698.009 579.395 697.865 578.818 697.865C578.412 697.865 578.054 697.935 577.744 698.074C577.438 698.213 577.196 698.406 577.02 698.653C576.847 698.898 576.76 699.176 576.76 699.489C576.76 699.719 576.81 699.92 576.909 700.094C577.009 700.267 577.142 700.416 577.31 700.541C577.48 700.663 577.668 700.768 577.872 700.857C578.08 700.945 578.288 701.018 578.499 701.078L579.419 701.342C579.697 701.419 579.976 701.517 580.254 701.636C580.533 701.756 580.787 701.906 581.017 702.088C581.25 702.267 581.436 702.487 581.575 702.749C581.717 703.007 581.788 703.318 581.788 703.682C581.788 704.148 581.668 704.567 581.426 704.939C581.185 705.311 580.838 705.607 580.386 705.825C579.935 706.041 579.393 706.149 578.763 706.149C578.169 706.149 577.653 706.051 577.216 705.855C576.778 705.656 576.435 705.382 576.185 705.033C575.935 704.683 575.794 704.278 575.763 703.818H576.581C576.609 704.162 576.723 704.453 576.922 704.692C577.121 704.93 577.379 705.112 577.697 705.237C578.016 705.359 578.371 705.42 578.763 705.42C579.197 705.42 579.584 705.348 579.922 705.203C580.263 705.055 580.53 704.851 580.723 704.589C580.919 704.325 581.017 704.018 581.017 703.669C581.017 703.374 580.94 703.126 580.787 702.928C580.634 702.726 580.419 702.557 580.143 702.42C579.871 702.284 579.554 702.163 579.193 702.058L578.149 701.751C577.464 701.547 576.933 701.264 576.555 700.903C576.178 700.543 575.989 700.082 575.989 699.523C575.989 699.054 576.114 698.642 576.364 698.287C576.616 697.929 576.957 697.651 577.386 697.452C577.818 697.25 578.303 697.149 578.839 697.149C579.382 697.149 579.862 697.249 580.28 697.447C580.697 697.646 581.028 697.92 581.273 698.27C581.52 698.616 581.652 699.011 581.669 699.455H580.898ZM585.578 697.989V697.273H591.906V697.989H589.14V706H588.343V697.989H585.578ZM596.1 706V697.273H598.916C599.536 697.273 600.053 697.385 600.468 697.609C600.885 697.831 601.199 698.139 601.409 698.534C601.622 698.926 601.729 699.376 601.729 699.885C601.729 700.393 601.622 700.842 601.409 701.232C601.199 701.621 600.887 701.925 600.472 702.143C600.057 702.362 599.543 702.472 598.929 702.472H596.53V701.743H598.908C599.362 701.743 599.74 701.668 600.041 701.517C600.345 701.366 600.571 701.152 600.719 700.874C600.87 700.595 600.945 700.266 600.945 699.885C600.945 699.504 600.87 699.172 600.719 698.888C600.568 698.601 600.341 698.379 600.037 698.223C599.736 698.067 599.355 697.989 598.895 697.989H596.897V706H596.1ZM599.948 702.062L602.095 706H601.175L599.049 702.062H599.948ZM606.07 706V697.273H611.133V697.989H606.867V701.274H610.864V701.99H606.867V705.284H611.218V706H606.07ZM615.595 706V697.273H620.645V697.989H616.392V701.274H620.248V701.99H616.392V706H615.595ZM623.949 706H623.114L626.289 697.273H627.141L630.316 706H629.48L626.745 698.308H626.685L623.949 706ZM624.55 702.655H628.88V703.371H624.55V702.655ZM639.999 697.273L642.726 704.964H642.803L645.53 697.273H646.366L643.191 706H642.339L639.164 697.273H639.999ZM651.058 697.273V706H650.261V697.273H651.058ZM655.779 706V697.273H658.595C659.215 697.273 659.732 697.392 660.147 697.631C660.564 697.866 660.878 698.188 661.088 698.594C661.301 699 661.408 699.457 661.408 699.966C661.408 700.474 661.303 700.933 661.093 701.342C660.882 701.749 660.57 702.071 660.155 702.31C659.74 702.545 659.225 702.663 658.608 702.663H656.392V701.947H658.587C659.044 701.947 659.424 701.862 659.725 701.692C660.026 701.518 660.25 701.283 660.398 700.984C660.549 700.686 660.624 700.347 660.624 699.966C660.624 699.585 660.549 699.246 660.398 698.947C660.25 698.649 660.024 698.415 659.72 698.244C659.419 698.074 659.037 697.989 658.574 697.989H656.575V706H655.779Z" fill="#090000"/>
<rect x="49.25" y="245.25" width="723.5" height="308.5" rx="32.75" fill="#C3AE96" fill-opacity="0.2" stroke="#C3AE96" stroke-width="0.5"/>
<circle cx="664.579" cy="321.579" r="27.3816" fill="#FFFDFB" stroke="#C3AE96" stroke-width="0.5"/>
<path d="M713.158 309.671C718.543 309.671 722.908 314.036 722.908 319.421V324.289C722.908 329.674 718.543 334.039 713.158 334.039H695.776V309.671H713.158Z" fill="#FFFDFB" stroke="#C3AE96" stroke-width="0.5"/>
<path d="M616 334.04C610.615 334.039 606.25 329.674 606.25 324.29V319.421C606.25 314.037 610.615 309.672 616 309.671H633.382V334.04H616Z" fill="#FFFDFB" stroke="#C3AE96" stroke-width="0.5"/>
<path d="M652.118 273C652.119 267.615 656.484 263.25 661.868 263.25H666.737C672.121 263.25 676.486 267.615 676.487 273V290.382H652.118V273Z" fill="#FFFDFB" stroke="#C3AE96" stroke-width="0.5"/>
<path d="M677.039 370.158C677.039 375.543 672.674 379.908 667.289 379.908H662.421C657.037 379.908 652.671 375.543 652.671 370.158V352.776H677.039V370.158Z" fill="#FFFDFB" stroke="#C3AE96" stroke-width="0.5"/>
<circle cx="154.579" cy="321.579" r="27.3816" fill="#FFFDFB" stroke="#C3AE96" stroke-width="0.5"/>
<path d="M203.158 309.671C208.543 309.671 212.908 314.036 212.908 319.421V324.289C212.908 329.674 208.543 334.039 203.158 334.039H185.776V309.671H203.158Z" fill="#FFFDFB" stroke="#C3AE96" stroke-width="0.5"/>
<path d="M106 334.04C100.615 334.039 96.2498 329.674 96.2498 324.29V319.421C96.2498 314.037 100.615 309.672 106 309.671H123.382V334.04H106Z" fill="#FFFDFB" stroke="#C3AE96" stroke-width="0.5"/>
<path d="M142.118 273C142.119 267.615 146.484 263.25 151.868 263.25H156.737C162.121 263.25 166.486 267.615 166.487 273V290.382H142.118V273Z" fill="#FFFDFB" stroke="#C3AE96" stroke-width="0.5"/>
<path d="M167.039 370.158C167.039 375.543 162.674 379.908 157.289 379.908H152.421C147.037 379.908 142.671 375.543 142.671 370.158V352.776H167.039V370.158Z" fill="#FFFDFB" stroke="#C3AE96" stroke-width="0.5"/>
<circle cx="666.579" cy="478.737" r="27.3816" fill="#FFFDFB" stroke="#C3AE96" stroke-width="0.5"/>
<path d="M715.158 466.829C720.543 466.829 724.908 471.194 724.908 476.579V481.447C724.908 486.832 720.543 491.197 715.158 491.197H697.776V466.829H715.158Z" fill="#FFFDFB" stroke="#C3AE96" stroke-width="0.5"/>
<path d="M618 491.197C612.615 491.197 608.25 486.832 608.25 481.447V476.579C608.25 471.194 612.615 466.829 618 466.829H635.382V491.197H618Z" fill="#FFFDFB" stroke="#C3AE96" stroke-width="0.5"/>
<path d="M654.118 430.158C654.119 424.773 658.484 420.408 663.868 420.408H668.737C674.121 420.408 678.486 424.773 678.487 430.158V447.539H654.118V430.158Z" fill="#FFFDFB" stroke="#C3AE96" stroke-width="0.5"/>
<path d="M679.039 527.316C679.039 532.701 674.674 537.066 669.289 537.066H664.421C659.037 537.066 654.671 532.701 654.671 527.316V509.934H679.039V527.316Z" fill="#FFFDFB" stroke="#C3AE96" stroke-width="0.5"/>
<circle cx="154.579" cy="478.737" r="27.3816" fill="#FFFDFB" stroke="#C3AE96" stroke-width="0.5"/>
<path d="M203.158 466.829C208.543 466.829 212.908 471.194 212.908 476.579V481.447C212.908 486.832 208.543 491.197 203.158 491.197H185.776V466.829H203.158Z" fill="#FFFDFB" stroke="#C3AE96" stroke-width="0.5"/>
<path d="M106 491.197C100.615 491.197 96.2498 486.832 96.2498 481.447V476.579C96.2498 471.194 100.615 466.829 106 466.829H123.382V491.197H106Z" fill="#FFFDFB" stroke="#C3AE96" stroke-width="0.5"/>
<path d="M142.118 430.158C142.119 424.773 146.484 420.408 151.868 420.408H156.737C162.121 420.408 166.486 424.773 166.487 430.158V447.539H142.118V430.158Z" fill="#FFFDFB" stroke="#C3AE96" stroke-width="0.5"/>
<path d="M167.039 527.316C167.039 532.701 162.674 537.066 157.289 537.066H152.421C147.037 537.066 142.671 532.701 142.671 527.316V509.934H167.039V527.316Z" fill="#FFFDFB" stroke="#C3AE96" stroke-width="0.5"/>
<path d="M486.632 310.25C492.016 310.25 496.382 314.615 496.382 320V324.868C496.382 330.253 492.016 334.618 486.632 334.618H469.25V310.25H486.632Z" fill="#FFFDFB" stroke="#C3AE96" stroke-width="0.5"/>
<path d="M334 334.513C328.615 334.513 324.25 330.148 324.25 324.763V319.895C324.25 314.51 328.615 310.145 334 310.145H351.382V334.513H334Z" fill="#FFFDFB" stroke="#C3AE96" stroke-width="0.5"/>
<path d="M365.145 279C365.145 273.615 369.51 269.25 374.895 269.25H379.763C385.148 269.25 389.513 273.615 389.513 279V296.382H365.145V279Z" fill="#FFFDFB" stroke="#C3AE96" stroke-width="0.5"/>
<path d="M398.303 279C398.303 273.615 402.668 269.25 408.053 269.25H412.921C418.306 269.25 422.671 273.615 422.671 279V296.382H398.303V279Z" fill="#FFFDFB" stroke="#C3AE96" stroke-width="0.5"/>
<path d="M431.25 279C431.25 273.615 435.615 269.25 441 269.25H445.868C451.253 269.25 455.618 273.615 455.618 279V296.382H431.25V279Z" fill="#FFFDFB" stroke="#C3AE96" stroke-width="0.5"/>
<path d="M389.513 365.105C389.513 370.49 385.148 374.855 379.763 374.855H374.895C369.51 374.855 365.145 370.49 365.145 365.105V347.724H389.513V365.105Z" fill="#FFFDFB" stroke="#C3AE96" stroke-width="0.5"/>
<path d="M422.671 365.105C422.671 370.49 418.306 374.855 412.921 374.855H408.053C402.668 374.855 398.303 370.49 398.303 365.105V347.724H422.671V365.105Z" fill="#FFFDFB" stroke="#C3AE96" stroke-width="0.5"/>
<path d="M455.618 365.105C455.618 370.49 451.253 374.855 445.868 374.855H441C435.616 374.855 431.25 370.49 431.25 365.105V347.724H455.618V365.105Z" fill="#FFFDFB" stroke="#C3AE96" stroke-width="0.5"/>
<rect x="355.25" y="300.25" width="110.5" height="43.5" rx="9.75" fill="#FFFDFB" stroke="#C3AE96" stroke-width="0.5"/>
<path d="M486.632 467.25C492.016 467.25 496.382 471.615 496.382 477V481.868C496.382 487.253 492.016 491.618 486.632 491.618H469.25V467.25H486.632Z" fill="#FFFDFB" stroke="#C3AE96" stroke-width="0.5"/>
<path d="M334 491.513C328.615 491.513 324.25 487.148 324.25 481.763V476.895C324.25 471.51 328.615 467.145 334 467.145H351.382V491.513H334Z" fill="#FFFDFB" stroke="#C3AE96" stroke-width="0.5"/>
<path d="M365.145 436C365.145 430.615 369.51 426.25 374.895 426.25H379.763C385.148 426.25 389.513 430.615 389.513 436V453.382H365.145V436Z" fill="#FFFDFB" stroke="#C3AE96" stroke-width="0.5"/>
<path d="M398.303 436C398.303 430.615 402.668 426.25 408.053 426.25H412.921C418.306 426.25 422.671 430.615 422.671 436V453.382H398.303V436Z" fill="#FFFDFB" stroke="#C3AE96" stroke-width="0.5"/>
<path d="M431.25 436C431.25 430.615 435.615 426.25 441 426.25H445.868C451.253 426.25 455.618 430.615 455.618 436V453.382H431.25V436Z" fill="#FFFDFB" stroke="#C3AE96" stroke-width="0.5"/>
<path d="M389.513 522.105C389.513 527.49 385.148 531.855 379.763 531.855H374.895C369.51 531.855 365.145 527.49 365.145 522.105V504.724H389.513V522.105Z" fill="#FFFDFB" stroke="#C3AE96" stroke-width="0.5"/>
<path d="M422.671 522.105C422.671 527.49 418.306 531.855 412.921 531.855H408.053C402.668 531.855 398.303 527.49 398.303 522.105V504.724H422.671V522.105Z" fill="#FFFDFB" stroke="#C3AE96" stroke-width="0.5"/>
<path d="M455.618 522.105C455.618 527.49 451.253 531.855 445.868 531.855H441C435.616 531.855 431.25 527.49 431.25 522.105V504.724H455.618V522.105Z" fill="#FFFDFB" stroke="#C3AE96" stroke-width="0.5"/>
<rect x="355.25" y="457.25" width="110.5" height="43.5" rx="9.75" fill="#FFFDFB" stroke="#C3AE96" stroke-width="0.5"/>
<path d="M260.898 408.455C260.849 407.969 260.635 407.582 260.254 407.295C259.874 407.009 259.395 406.865 258.818 406.865C258.412 406.865 258.054 406.935 257.744 407.074C257.438 407.213 257.196 407.406 257.02 407.653C256.847 407.898 256.76 408.176 256.76 408.489C256.76 408.719 256.81 408.92 256.909 409.094C257.009 409.267 257.142 409.416 257.31 409.541C257.48 409.663 257.668 409.768 257.872 409.857C258.08 409.945 258.288 410.018 258.499 410.078L259.419 410.342C259.697 410.419 259.976 410.517 260.254 410.636C260.533 410.756 260.787 410.906 261.017 411.088C261.25 411.267 261.436 411.487 261.575 411.749C261.717 412.007 261.788 412.318 261.788 412.682C261.788 413.148 261.668 413.567 261.426 413.939C261.185 414.311 260.838 414.607 260.386 414.825C259.935 415.041 259.393 415.149 258.763 415.149C258.169 415.149 257.653 415.051 257.216 414.855C256.778 414.656 256.435 414.382 256.185 414.033C255.935 413.683 255.794 413.278 255.763 412.818H256.581C256.609 413.162 256.723 413.453 256.922 413.692C257.121 413.93 257.379 414.112 257.697 414.237C258.016 414.359 258.371 414.42 258.763 414.42C259.197 414.42 259.584 414.348 259.922 414.203C260.263 414.055 260.53 413.851 260.723 413.589C260.919 413.325 261.017 413.018 261.017 412.669C261.017 412.374 260.94 412.126 260.787 411.928C260.634 411.726 260.419 411.557 260.143 411.42C259.871 411.284 259.554 411.163 259.193 411.058L258.149 410.751C257.464 410.547 256.933 410.264 256.555 409.903C256.178 409.543 255.989 409.082 255.989 408.523C255.989 408.054 256.114 407.642 256.364 407.287C256.616 406.929 256.957 406.651 257.386 406.452C257.818 406.25 258.303 406.149 258.839 406.149C259.382 406.149 259.862 406.249 260.28 406.447C260.697 406.646 261.028 406.92 261.273 407.27C261.52 407.616 261.652 408.011 261.669 408.455H260.898ZM266.119 415H265.284L268.458 406.273H269.311L272.485 415H271.65L268.914 407.308H268.855L266.119 415ZM266.72 411.655H271.049V412.371H266.72V411.655ZM276.381 415V406.273H277.178V414.284H281.337V415H276.381ZM286.095 415H285.259L288.434 406.273H289.286L292.461 415H291.626L288.89 407.308H288.83L286.095 415ZM286.695 411.655H291.025V412.371H286.695V411.655Z" fill="#090000"/>
<rect x="789.25" y="245.25" width="159.5" height="504.5" rx="32.75" fill="#C3AE96" fill-opacity="0.2" stroke="#C3AE96" stroke-width="0.5"/>
<path d="M926.263 319.145C931.648 319.145 936.013 323.51 936.013 328.895V333.763C936.013 339.148 931.648 343.513 926.263 343.513H908.881V319.145H926.263Z" fill="#FFFDFB" stroke="#C3AE96" stroke-width="0.5"/>
<path d="M807 343.513C801.615 343.513 797.25 339.148 797.25 333.763V328.895C797.25 323.51 801.615 319.145 807 319.145H824.382V343.513H807Z" fill="#FFFDFB" stroke="#C3AE96" stroke-width="0.5"/>
<path d="M838.145 288C838.145 282.615 842.51 278.25 847.895 278.25H852.763C858.147 278.25 862.513 282.615 862.513 288V305.382H838.145V288Z" fill="#FFFDFB" stroke="#C3AE96" stroke-width="0.5"/>
<path d="M871.303 288C871.303 282.615 875.668 278.25 881.053 278.25H885.921C891.306 278.25 895.671 282.615 895.671 288V305.382H871.303V288Z" fill="#FFFDFB" stroke="#C3AE96" stroke-width="0.5"/>
<path d="M862.513 374.105C862.513 379.49 858.148 383.855 852.763 383.855H847.895C842.51 383.855 838.145 379.49 838.145 374.105V356.724H862.513V374.105Z" fill="#FFFDFB" stroke="#C3AE96" stroke-width="0.5"/>
<path d="M895.671 374.105C895.671 379.49 891.306 383.855 885.921 383.855H881.053C875.668 383.855 871.303 379.49 871.303 374.105V356.724H895.671V374.105Z" fill="#FFFDFB" stroke="#C3AE96" stroke-width="0.5"/>
<rect x="830.197" y="309.197" width="76.8684" height="43.7105" rx="9.75" fill="#FFFDFB" stroke="#C3AE96" stroke-width="0.5"/>
<path d="M926.263 485.25C931.648 485.25 936.013 489.615 936.013 495V499.868C936.013 505.253 931.648 509.618 926.263 509.618H908.881V485.25H926.263Z" fill="#FFFDFB" stroke="#C3AE96" stroke-width="0.5"/>
<path d="M807 509.618C801.615 509.618 797.25 505.253 797.25 499.868V495C797.25 489.615 801.615 485.25 807 485.25H824.382V509.618H807Z" fill="#FFFDFB" stroke="#C3AE96" stroke-width="0.5"/>
<path d="M838.145 454.105C838.145 448.72 842.51 444.355 847.895 444.355H852.763C858.147 444.355 862.513 448.72 862.513 454.105V471.487H838.145V454.105Z" fill="#FFFDFB" stroke="#C3AE96" stroke-width="0.5"/>
<path d="M871.303 454.105C871.303 448.72 875.668 444.355 881.053 444.355H885.921C891.306 444.355 895.671 448.72 895.671 454.105V471.487H871.303V454.105Z" fill="#FFFDFB" stroke="#C3AE96" stroke-width="0.5"/>
<path d="M862.513 540.211C862.513 545.595 858.148 549.961 852.763 549.961H847.895C842.51 549.961 838.145 545.595 838.145 540.211V522.829H862.513V540.211Z" fill="#FFFDFB" stroke="#C3AE96" stroke-width="0.5"/>
<path d="M895.671 540.211C895.671 545.595 891.306 549.961 885.921 549.961H881.053C875.668 549.961 871.303 545.595 871.303 540.211V522.829H895.671V540.211Z" fill="#FFFDFB" stroke="#C3AE96" stroke-width="0.5"/>
<rect x="830.197" y="475.303" width="76.8684" height="43.7105" rx="9.75" fill="#FFFDFB" stroke="#C3AE96" stroke-width="0.5"/>
<path d="M926.263 651.355C931.648 651.355 936.013 655.721 936.013 661.105V665.973C936.013 671.358 931.648 675.723 926.263 675.723H908.881V651.355H926.263Z" fill="#FFFDFB" stroke="#C3AE96" stroke-width="0.5"/>
<path d="M807 675.724C801.615 675.723 797.25 671.358 797.25 665.974V661.105C797.25 655.721 801.615 651.355 807 651.355H824.382V675.724H807Z" fill="#FFFDFB" stroke="#C3AE96" stroke-width="0.5"/>
<path d="M838.145 620.21C838.145 614.826 842.51 610.46 847.895 610.46H852.763C858.147 610.46 862.513 614.826 862.513 620.21V637.592H838.145V620.21Z" fill="#FFFDFB" stroke="#C3AE96" stroke-width="0.5"/>
<path d="M871.303 620.21C871.303 614.826 875.668 610.46 881.053 610.46H885.921C891.306 610.46 895.671 614.826 895.671 620.21V637.592H871.303V620.21Z" fill="#FFFDFB" stroke="#C3AE96" stroke-width="0.5"/>
<path d="M862.513 706.316C862.513 711.7 858.148 716.066 852.763 716.066H847.895C842.51 716.066 838.145 711.7 838.145 706.316V688.934H862.513V706.316Z" fill="#FFFDFB" stroke="#C3AE96" stroke-width="0.5"/>
<path d="M895.671 706.316C895.671 711.7 891.306 716.066 885.921 716.066H881.053C875.668 716.066 871.303 711.7 871.303 706.316V688.934H895.671V706.316Z" fill="#FFFDFB" stroke="#C3AE96" stroke-width="0.5"/>
<rect x="830.197" y="641.408" width="76.8684" height="43.7105" rx="9.75" fill="#FFFDFB" stroke="#C3AE96" stroke-width="0.5"/>
<path d="M845.159 420V411.273H848.104C848.672 411.273 849.145 411.372 849.523 411.571C849.903 411.77 850.189 412.041 850.379 412.385C850.57 412.729 850.665 413.119 850.665 413.557C850.665 413.92 850.604 414.232 850.482 414.49C850.359 414.749 850.193 414.957 849.983 415.116C849.773 415.276 849.538 415.391 849.28 415.462V415.53C849.561 415.55 849.834 415.649 850.098 415.828C850.362 416.004 850.58 416.251 850.75 416.57C850.92 416.888 851.006 417.268 851.006 417.712C851.006 418.152 850.908 418.545 850.712 418.892C850.516 419.236 850.214 419.507 849.808 419.706C849.405 419.902 848.891 420 848.266 420H845.159ZM845.956 419.284H848.266C848.939 419.284 849.436 419.135 849.757 418.837C850.081 418.538 850.243 418.163 850.243 417.712C850.243 417.379 850.162 417.078 850 416.808C849.841 416.536 849.615 416.32 849.322 416.161C849.033 416.001 848.692 415.922 848.3 415.922H845.956V419.284ZM845.956 415.214H848.176C848.52 415.214 848.821 415.143 849.08 415.001C849.338 414.859 849.54 414.663 849.685 414.413C849.83 414.163 849.902 413.878 849.902 413.557C849.902 413.094 849.751 412.717 849.45 412.428C849.149 412.135 848.7 411.989 848.104 411.989H845.956V415.214ZM862.483 415.636C862.483 416.545 862.322 417.337 861.998 418.01C861.674 418.68 861.228 419.2 860.66 419.57C860.094 419.936 859.444 420.119 858.708 420.119C857.972 420.119 857.32 419.936 856.752 419.57C856.187 419.2 855.742 418.68 855.418 418.01C855.097 417.337 854.937 416.545 854.937 415.636C854.937 414.727 855.097 413.937 855.418 413.267C855.742 412.594 856.188 412.074 856.756 411.707C857.324 411.338 857.975 411.153 858.708 411.153C859.444 411.153 860.094 411.338 860.66 411.707C861.228 412.074 861.674 412.594 861.998 413.267C862.322 413.937 862.483 414.727 862.483 415.636ZM861.708 415.636C861.708 414.855 861.577 414.186 861.316 413.629C861.054 413.07 860.698 412.642 860.246 412.347C859.795 412.051 859.282 411.903 858.708 411.903C858.137 411.903 857.625 412.051 857.174 412.347C856.722 412.642 856.364 413.068 856.1 413.625C855.839 414.182 855.708 414.852 855.708 415.636C855.708 416.418 855.839 417.087 856.1 417.643C856.361 418.2 856.718 418.628 857.17 418.926C857.621 419.222 858.134 419.369 858.708 419.369C859.282 419.369 859.795 419.222 860.246 418.926C860.701 418.631 861.059 418.205 861.32 417.648C861.581 417.088 861.711 416.418 861.708 415.636ZM866.811 420V411.273H867.608V415.973H867.684L871.946 411.273H872.994L869.265 415.308L872.977 420H872.005L868.771 415.862L867.608 417.166V420H866.811ZM881.637 413.455C881.588 412.969 881.374 412.582 880.993 412.295C880.613 412.009 880.134 411.865 879.557 411.865C879.151 411.865 878.793 411.935 878.483 412.074C878.177 412.213 877.935 412.406 877.759 412.653C877.586 412.898 877.499 413.176 877.499 413.489C877.499 413.719 877.549 413.92 877.648 414.094C877.748 414.267 877.881 414.416 878.049 414.541C878.219 414.663 878.407 414.768 878.611 414.857C878.819 414.945 879.027 415.018 879.238 415.078L880.158 415.342C880.437 415.419 880.715 415.517 880.993 415.636C881.272 415.756 881.526 415.906 881.756 416.088C881.989 416.267 882.175 416.487 882.314 416.749C882.456 417.007 882.527 417.318 882.527 417.682C882.527 418.148 882.407 418.567 882.165 418.939C881.924 419.311 881.577 419.607 881.125 419.825C880.674 420.041 880.133 420.149 879.502 420.149C878.908 420.149 878.392 420.051 877.955 419.855C877.517 419.656 877.174 419.382 876.924 419.033C876.674 418.683 876.533 418.278 876.502 417.818H877.32C877.348 418.162 877.462 418.453 877.661 418.692C877.86 418.93 878.118 419.112 878.437 419.237C878.755 419.359 879.11 419.42 879.502 419.42C879.937 419.42 880.323 419.348 880.661 419.203C881.002 419.055 881.269 418.851 881.462 418.589C881.658 418.325 881.756 418.018 881.756 417.669C881.756 417.374 881.679 417.126 881.526 416.928C881.373 416.726 881.158 416.557 880.883 416.42C880.61 416.284 880.293 416.163 879.932 416.058L878.888 415.751C878.204 415.547 877.672 415.264 877.294 414.903C876.917 414.543 876.728 414.082 876.728 413.523C876.728 413.054 876.853 412.642 877.103 412.287C877.356 411.929 877.696 411.651 878.125 411.452C878.557 411.25 879.042 411.149 879.579 411.149C880.121 411.149 880.601 411.249 881.019 411.447C881.437 411.646 881.767 411.92 882.012 412.27C882.259 412.616 882.391 413.011 882.408 413.455H881.637ZM886.027 411.273H886.947L889.534 415.415H889.611L892.197 411.273H893.118L889.969 416.22V420H889.176V416.22L886.027 411.273Z" fill="#090000"/>
<rect x="324.25" y="90.25" width="624.5" height="139.5" rx="32.75" fill="#C3AE96" fill-opacity="0.2" stroke="#C3AE96" stroke-width="0.5"/>
<circle cx="557.579" cy="159.579" r="27.3816" fill="#FFFDFB" stroke="#C3AE96" stroke-width="0.5"/>
<path d="M606.158 147.671C611.543 147.671 615.908 152.036 615.908 157.421V162.289C615.908 167.674 611.543 172.039 606.158 172.039H588.776V147.671H606.158Z" fill="#FFFDFB" stroke="#C3AE96" stroke-width="0.5"/>
<path d="M509 172.04C503.615 172.039 499.25 167.674 499.25 162.29V157.421C499.25 152.037 503.615 147.672 509 147.671H526.382V172.04H509Z" fill="#FFFDFB" stroke="#C3AE96" stroke-width="0.5"/>
<path d="M545.118 111C545.119 105.615 549.484 101.25 554.868 101.25H559.737C565.121 101.25 569.486 105.615 569.487 111V128.382H545.118V111Z" fill="#FFFDFB" stroke="#C3AE96" stroke-width="0.5"/>
<path d="M570.039 208.158C570.039 213.543 565.674 217.908 560.289 217.908H555.421C550.037 217.908 545.671 213.543 545.671 208.158V190.776H570.039V208.158Z" fill="#FFFDFB" stroke="#C3AE96" stroke-width="0.5"/>
<circle cx="404.579" cy="159.579" r="27.3816" fill="#FFFDFB" stroke="#C3AE96" stroke-width="0.5"/>
<path d="M453.158 147.671C458.543 147.671 462.908 152.036 462.908 157.421V162.289C462.908 167.674 458.543 172.039 453.158 172.039H435.776V147.671H453.158Z" fill="#FFFDFB" stroke="#C3AE96" stroke-width="0.5"/>
<path d="M356 172.04C350.615 172.039 346.25 167.674 346.25 162.29V157.421C346.25 152.037 350.615 147.672 356 147.671H373.382V172.04H356Z" fill="#FFFDFB" stroke="#C3AE96" stroke-width="0.5"/>
<path d="M392.118 111C392.119 105.615 396.484 101.25 401.868 101.25H406.737C412.121 101.25 416.486 105.615 416.487 111V128.382H392.118V111Z" fill="#FFFDFB" stroke="#C3AE96" stroke-width="0.5"/>
<path d="M417.039 208.158C417.039 213.543 412.674 217.908 407.289 217.908H402.421C397.037 217.908 392.671 213.543 392.671 208.158V190.776H417.039V208.158Z" fill="#FFFDFB" stroke="#C3AE96" stroke-width="0.5"/>
<circle cx="712.579" cy="159.579" r="27.3816" fill="#FFFDFB" stroke="#C3AE96" stroke-width="0.5"/>
<path d="M761.158 147.671C766.543 147.671 770.908 152.036 770.908 157.421V162.289C770.908 167.674 766.543 172.039 761.158 172.039H743.776V147.671H761.158Z" fill="#FFFDFB" stroke="#C3AE96" stroke-width="0.5"/>
<path d="M664 172.04C658.615 172.039 654.25 167.674 654.25 162.29V157.421C654.25 152.037 658.615 147.672 664 147.671H681.382V172.04H664Z" fill="#FFFDFB" stroke="#C3AE96" stroke-width="0.5"/>
<path d="M700.118 111C700.119 105.615 704.484 101.25 709.868 101.25H714.737C720.121 101.25 724.486 105.615 724.487 111V128.382H700.118V111Z" fill="#FFFDFB" stroke="#C3AE96" stroke-width="0.5"/>
<path d="M725.039 208.158C725.039 213.543 720.674 217.908 715.289 217.908H710.421C705.037 217.908 700.671 213.543 700.671 208.158V190.776H725.039V208.158Z" fill="#FFFDFB" stroke="#C3AE96" stroke-width="0.5"/>
<circle cx="867.579" cy="159.579" r="27.3816" fill="#FFFDFB" stroke="#C3AE96" stroke-width="0.5"/>
<path d="M916.158 147.671C921.543 147.671 925.908 152.036 925.908 157.421V162.289C925.908 167.674 921.543 172.039 916.158 172.039H898.776V147.671H916.158Z" fill="#FFFDFB" stroke="#C3AE96" stroke-width="0.5"/>
<path d="M819 172.04C813.615 172.039 809.25 167.674 809.25 162.29V157.421C809.25 152.037 813.615 147.672 819 147.671H836.382V172.04H819Z" fill="#FFFDFB" stroke="#C3AE96" stroke-width="0.5"/>
<path d="M855.118 111C855.119 105.615 859.484 101.25 864.868 101.25H869.737C875.121 101.25 879.486 105.615 879.487 111V128.382H855.118V111Z" fill="#FFFDFB" stroke="#C3AE96" stroke-width="0.5"/>
<path d="M880.039 208.158C880.039 213.543 875.674 217.908 870.289 217.908H865.421C860.037 217.908 855.671 213.543 855.671 208.158V190.776H880.039V208.158Z" fill="#FFFDFB" stroke="#C3AE96" stroke-width="0.5"/>
<path d="M623.314 110.636C623.314 111.545 623.152 112.337 622.828 113.01C622.504 113.68 622.058 114.2 621.49 114.57C620.925 114.936 620.274 115.119 619.538 115.119C618.803 115.119 618.151 114.936 617.582 114.57C617.017 114.2 616.572 113.68 616.249 113.01C615.928 112.337 615.767 111.545 615.767 110.636C615.767 109.727 615.928 108.937 616.249 108.267C616.572 107.594 617.018 107.074 617.587 106.707C618.155 106.338 618.805 106.153 619.538 106.153C620.274 106.153 620.925 106.338 621.49 106.707C622.058 107.074 622.504 107.594 622.828 108.267C623.152 108.937 623.314 109.727 623.314 110.636ZM622.538 110.636C622.538 109.855 622.408 109.186 622.146 108.629C621.885 108.07 621.528 107.642 621.077 107.347C620.625 107.051 620.112 106.903 619.538 106.903C618.967 106.903 618.456 107.051 618.004 107.347C617.553 107.642 617.195 108.068 616.93 108.625C616.669 109.182 616.538 109.852 616.538 110.636C616.538 111.418 616.669 112.087 616.93 112.643C617.192 113.2 617.548 113.628 618 113.926C618.452 114.222 618.964 114.369 619.538 114.369C620.112 114.369 620.625 114.222 621.077 113.926C621.531 113.631 621.889 113.205 622.151 112.648C622.412 112.088 622.541 111.418 622.538 110.636ZM627.641 115V106.273H628.438V110.973H628.515L632.776 106.273H633.824L630.096 110.308L633.807 115H632.836L629.601 110.862L628.438 112.166V115H627.641ZM644.525 106.273V115H643.75L638.594 107.692H638.525V115H637.729V106.273H638.5L643.673 113.589H643.741V106.273H644.525ZM656.401 110.636C656.401 111.545 656.239 112.337 655.915 113.01C655.591 113.68 655.145 114.2 654.577 114.57C654.011 114.936 653.361 115.119 652.625 115.119C651.889 115.119 651.237 114.936 650.669 114.57C650.104 114.2 649.659 113.68 649.335 113.01C649.014 112.337 648.854 111.545 648.854 110.636C648.854 109.727 649.014 108.937 649.335 108.267C649.659 107.594 650.105 107.074 650.673 106.707C651.242 106.338 651.892 106.153 652.625 106.153C653.361 106.153 654.011 106.338 654.577 106.707C655.145 107.074 655.591 107.594 655.915 108.267C656.239 108.937 656.401 109.727 656.401 110.636ZM655.625 110.636C655.625 109.855 655.494 109.186 655.233 108.629C654.972 108.07 654.615 107.642 654.163 107.347C653.712 107.051 653.199 106.903 652.625 106.903C652.054 106.903 651.543 107.051 651.091 107.347C650.639 107.642 650.281 108.068 650.017 108.625C649.756 109.182 649.625 109.852 649.625 110.636C649.625 111.418 649.756 112.087 650.017 112.643C650.278 113.2 650.635 113.628 651.087 113.926C651.538 114.222 652.051 114.369 652.625 114.369C653.199 114.369 653.712 114.222 654.163 113.926C654.618 113.631 654.976 113.205 655.237 112.648C655.499 112.088 655.628 111.418 655.625 110.636Z" fill="#090000"/>
<rect x="99" y="50" width="160" height="20" rx="8" fill="#C0E1F8" fill-opacity="0.5"/>
<rect x="274" y="50" width="625" height="20" rx="8" fill="#C0E1F8" fill-opacity="0.5"/>
<path d="M148.676 89L146.286 80.2727H147.095L149.072 87.777H149.141L151.118 80.2727H152.038L154.016 87.777H154.084L156.061 80.2727H156.875L154.484 89H153.632L151.608 81.598H151.553L149.528 89H148.676ZM160.715 89V80.2727H165.778V80.9886H161.512V84.2741H165.509V84.9901H161.512V88.2841H165.863V89H160.715ZM173.547 80.2727H174.344V86.5668C174.341 87.1349 174.239 87.6094 174.037 87.9901C173.836 88.3679 173.557 88.6506 173.202 88.8381C172.847 89.0256 172.439 89.1193 171.979 89.1193C171.527 89.1193 171.124 89.0355 170.769 88.8679C170.414 88.7003 170.134 88.4645 169.929 88.1605C169.728 87.8565 169.627 87.5 169.627 87.0909H170.411C170.411 87.3494 170.479 87.5781 170.615 87.777C170.752 87.973 170.938 88.1264 171.174 88.2372C171.412 88.348 171.681 88.4034 171.979 88.4034C172.289 88.4034 172.56 88.3381 172.793 88.2074C173.029 88.0767 173.213 87.8764 173.347 87.6065C173.48 87.3338 173.547 86.9872 173.547 86.5668V80.2727ZM183.801 82.4545C183.753 81.9687 183.538 81.5824 183.157 81.2955C182.777 81.0085 182.298 80.8651 181.721 80.8651C181.315 80.8651 180.957 80.9347 180.647 81.0739C180.341 81.2131 180.099 81.4062 179.923 81.6534C179.75 81.8977 179.663 82.1761 179.663 82.4886C179.663 82.7188 179.713 82.9205 179.812 83.0938C179.912 83.267 180.045 83.4162 180.213 83.5412C180.383 83.6634 180.571 83.7685 180.775 83.8565C180.983 83.9446 181.191 84.0185 181.402 84.0781L182.322 84.3423C182.601 84.419 182.879 84.517 183.157 84.6364C183.436 84.7557 183.69 84.9062 183.92 85.0881C184.153 85.267 184.339 85.4872 184.478 85.7486C184.62 86.0071 184.691 86.3182 184.691 86.6818C184.691 87.1477 184.571 87.5668 184.329 87.9389C184.088 88.3111 183.741 88.6065 183.289 88.8253C182.838 89.0412 182.297 89.1491 181.666 89.1491C181.072 89.1491 180.557 89.0511 180.119 88.8551C179.682 88.6562 179.338 88.3821 179.088 88.0327C178.838 87.6832 178.697 87.2784 178.666 86.8182H179.484C179.513 87.1619 179.626 87.4531 179.825 87.6918C180.024 87.9304 180.282 88.1122 180.601 88.2372C180.919 88.3594 181.274 88.4205 181.666 88.4205C182.101 88.4205 182.487 88.348 182.825 88.2031C183.166 88.0554 183.433 87.8509 183.626 87.5895C183.822 87.3253 183.92 87.0185 183.92 86.669C183.92 86.3736 183.843 86.1264 183.69 85.9276C183.537 85.7259 183.322 85.5568 183.047 85.4205C182.774 85.2841 182.457 85.1634 182.096 85.0582L181.052 84.7514C180.368 84.5469 179.836 84.2642 179.459 83.9034C179.081 83.5426 178.892 83.0824 178.892 82.5227C178.892 82.054 179.017 81.642 179.267 81.2869C179.52 80.929 179.861 80.6506 180.289 80.4517C180.721 80.25 181.206 80.1491 181.743 80.1491C182.285 80.1491 182.765 80.2486 183.183 80.4474C183.601 80.6463 183.932 80.9205 184.176 81.2699C184.423 81.6165 184.555 82.0114 184.572 82.4545H183.801ZM181.321 79.3651L182.412 77.4304H183.311L182.003 79.3651H181.321ZM195.844 83H195.043C194.984 82.7017 194.876 82.4261 194.719 82.1733C194.566 81.9176 194.373 81.6946 194.14 81.5043C193.907 81.3139 193.643 81.1662 193.347 81.0611C193.052 80.956 192.732 80.9034 192.388 80.9034C191.837 80.9034 191.334 81.0469 190.88 81.3338C190.428 81.6207 190.066 82.0426 189.793 82.5994C189.523 83.1534 189.388 83.8324 189.388 84.6364C189.388 85.446 189.523 86.1278 189.793 86.6818C190.066 87.2358 190.428 87.6562 190.88 87.9432C191.334 88.2273 191.837 88.3693 192.388 88.3693C192.732 88.3693 193.052 88.3168 193.347 88.2116C193.643 88.1065 193.907 87.9602 194.14 87.7727C194.373 87.5824 194.566 87.3594 194.719 87.1037C194.876 86.848 194.984 86.571 195.043 86.2727H195.844C195.773 86.6733 195.64 87.0469 195.444 87.3935C195.251 87.7372 195.003 88.0384 194.702 88.2969C194.404 88.5554 194.06 88.7571 193.671 88.902C193.282 89.0469 192.854 89.1193 192.388 89.1193C191.655 89.1193 191.005 88.9361 190.437 88.5696C189.868 88.2003 189.422 87.6804 189.099 87.0099C188.778 86.3395 188.617 85.5483 188.617 84.6364C188.617 83.7244 188.778 82.9332 189.099 82.2628C189.422 81.5923 189.868 81.0739 190.437 80.7074C191.005 80.3381 191.655 80.1534 192.388 80.1534C192.854 80.1534 193.282 80.2259 193.671 80.3707C194.06 80.5128 194.404 80.7145 194.702 80.9759C195.003 81.2344 195.251 81.5355 195.444 81.8793C195.64 82.223 195.773 82.5966 195.844 83ZM200.913 80.2727V89H200.116V80.2727H200.913ZM205.633 89V80.2727H210.696V80.9886H206.43V84.2741H210.427V84.9901H206.43V88.2841H210.781V89H205.633Z" fill="#090000"/>
<path d="M433.56 27.64C433.496 27.8107 433.432 28.008 433.368 28.232C433.304 28.456 433.235 28.696 433.16 28.952C433.107 29.1547 433.037 29.448 432.952 29.832C432.867 30.2053 432.792 30.5947 432.728 31C432.184 30.9787 431.571 30.968 430.888 30.968C430.205 30.9573 429.597 30.952 429.064 30.952C428.829 30.952 428.525 30.952 428.152 30.952C427.789 30.952 427.395 30.9573 426.968 30.968C426.541 30.968 426.109 30.9733 425.672 30.984C425.235 30.984 424.824 30.9893 424.44 31L424.52 30.68C424.883 30.6587 425.165 30.616 425.368 30.552C425.571 30.488 425.725 30.36 425.832 30.168C425.949 29.976 426.061 29.688 426.168 29.304L428.296 21.368C428.403 20.9733 428.445 20.6853 428.424 20.504C428.413 20.312 428.323 20.184 428.152 20.12C427.992 20.0453 427.731 20.0027 427.368 19.992L427.448 19.672C427.672 19.6827 427.965 19.6933 428.328 19.704C428.691 19.7147 429.08 19.72 429.496 19.72C429.869 19.72 430.237 19.7147 430.6 19.704C430.973 19.6933 431.283 19.6827 431.528 19.672L431.448 19.992C431.085 20.0027 430.803 20.0453 430.6 20.12C430.397 20.184 430.237 20.312 430.12 20.504C430.003 20.6853 429.891 20.9733 429.784 21.368L427.656 29.304C427.549 29.688 427.501 29.976 427.512 30.168C427.533 30.36 427.629 30.488 427.8 30.552C427.971 30.6053 428.237 30.632 428.6 30.632H429.768C430.44 30.632 430.973 30.536 431.368 30.344C431.773 30.152 432.109 29.8373 432.376 29.4C432.653 28.9627 432.925 28.376 433.192 27.64H433.56ZM445.575 25.464L445.671 25.144H448.439L448.343 25.464H445.575ZM447.207 25.144C447.559 25.144 447.847 25.0747 448.071 24.936C448.295 24.7867 448.476 24.6 448.615 24.376C448.764 24.152 448.887 23.9227 448.983 23.688C449.079 23.4427 449.17 23.224 449.255 23.032H449.623C449.42 23.64 449.276 24.104 449.191 24.424C449.116 24.744 449.042 25.0373 448.967 25.304C448.924 25.4747 448.876 25.6613 448.823 25.864C448.78 26.056 448.727 26.2907 448.663 26.568C448.61 26.8347 448.54 27.1707 448.455 27.576H448.087C448.119 27.32 448.151 27.0693 448.183 26.824C448.215 26.568 448.21 26.3387 448.167 26.136C448.135 25.9333 448.039 25.7733 447.879 25.656C447.719 25.528 447.463 25.464 447.111 25.464L447.207 25.144ZM451.447 22.552C451.554 21.9227 451.596 21.4267 451.575 21.064C451.554 20.6907 451.42 20.4293 451.175 20.28C450.94 20.12 450.54 20.04 449.975 20.04H448.807C448.444 20.04 448.162 20.072 447.959 20.136C447.767 20.1893 447.612 20.312 447.495 20.504C447.378 20.6853 447.266 20.9733 447.159 21.368L445.031 29.304C444.924 29.688 444.876 29.976 444.887 30.168C444.908 30.36 445.004 30.488 445.175 30.552C445.346 30.6053 445.612 30.632 445.975 30.632H447.143C447.815 30.632 448.348 30.5413 448.743 30.36C449.138 30.1787 449.468 29.8853 449.735 29.48C450.002 29.064 450.263 28.504 450.519 27.8H450.887C450.834 27.9387 450.775 28.1093 450.711 28.312C450.647 28.5147 450.588 28.728 450.535 28.952C450.482 29.1547 450.412 29.448 450.327 29.832C450.242 30.2053 450.167 30.5947 450.103 31C449.559 30.9787 448.946 30.968 448.263 30.968C447.58 30.9573 446.972 30.952 446.439 30.952C446.204 30.952 445.9 30.952 445.527 30.952C445.164 30.952 444.77 30.9573 444.343 30.968C443.916 30.968 443.484 30.9733 443.047 30.984C442.61 30.984 442.199 30.9893 441.815 31L441.895 30.68C442.258 30.6587 442.54 30.616 442.743 30.552C442.946 30.488 443.1 30.36 443.207 30.168C443.324 29.976 443.436 29.688 443.543 29.304L445.671 21.368C445.778 20.9733 445.82 20.6853 445.799 20.504C445.788 20.312 445.698 20.184 445.527 20.12C445.367 20.0453 445.106 20.0027 444.743 19.992L444.823 19.672C445.218 19.6827 445.634 19.6933 446.071 19.704C446.508 19.704 446.94 19.7093 447.367 19.72C447.794 19.72 448.188 19.72 448.551 19.72C448.924 19.72 449.228 19.72 449.463 19.72C449.932 19.72 450.46 19.72 451.047 19.72C451.644 19.7093 452.178 19.6933 452.647 19.672C452.508 20.0453 452.386 20.408 452.279 20.76C452.172 21.112 452.092 21.3787 452.039 21.56C451.986 21.752 451.938 21.9387 451.895 22.12C451.863 22.2907 451.836 22.4347 451.815 22.552H451.447ZM481.164 25.144L481.116 25.464H475.98L476.028 25.144H481.164ZM479.468 21.352C479.084 21.352 478.732 21.3093 478.412 21.224C478.102 21.128 477.798 21.0213 477.5 20.904C477.212 20.7867 476.908 20.6853 476.588 20.6C476.278 20.504 475.926 20.456 475.532 20.456C475.169 20.456 474.902 20.552 474.732 20.744C474.561 20.9253 474.481 21.1813 474.492 21.512C474.502 21.832 474.609 22.088 474.812 22.28C475.025 22.472 475.313 22.6053 475.676 22.68C475.676 22.68 475.665 22.7333 475.644 22.84C475.633 22.9467 475.628 23 475.628 23C475.35 22.9467 475.078 22.856 474.812 22.728C474.545 22.5893 474.321 22.392 474.14 22.136C473.969 21.88 473.878 21.5493 473.868 21.144C473.846 20.5787 474.001 20.1093 474.332 19.736C474.662 19.3627 475.126 19.176 475.724 19.176C476.076 19.176 476.39 19.2347 476.668 19.352C476.956 19.4693 477.222 19.6133 477.468 19.784C477.724 19.944 477.974 20.1093 478.22 20.28C478.465 20.4507 478.726 20.5947 479.004 20.712C479.281 20.8293 479.59 20.888 479.932 20.888C480.476 20.888 480.95 20.824 481.356 20.696C481.772 20.5573 482.241 20.3813 482.764 20.168C482.988 19.8267 483.206 19.5653 483.42 19.384C483.633 19.2027 483.82 19.1813 483.98 19.32C484.108 19.4267 484.102 19.5707 483.964 19.752C483.825 19.9333 483.473 20.1307 482.908 20.344C482.001 20.952 481.254 21.752 480.668 22.744C480.081 23.736 479.628 24.8507 479.308 26.088L478.316 29.96C478.134 30.6853 477.873 31.352 477.532 31.96C477.201 32.5787 476.785 33.0747 476.284 33.448C475.793 33.8213 475.212 34.008 474.539 34.008C474.23 34.008 473.953 33.976 473.708 33.912C473.462 33.848 473.27 33.7467 473.132 33.608C472.993 33.48 472.918 33.32 472.908 33.128C472.897 32.8933 472.972 32.6747 473.132 32.472C473.302 32.28 473.521 32.184 473.788 32.184C473.98 32.184 474.134 32.2427 474.252 32.36C474.38 32.488 474.449 32.6427 474.46 32.824C474.47 33.016 474.412 33.1813 474.284 33.32C474.156 33.4693 474.001 33.5867 473.82 33.672C473.894 33.6933 473.98 33.7093 474.076 33.72C474.172 33.7413 474.273 33.752 474.38 33.752C474.817 33.752 475.18 33.608 475.468 33.32C475.756 33.032 475.996 32.6427 476.188 32.152C476.38 31.672 476.55 31.1333 476.7 30.536C476.86 29.928 477.02 29.3093 477.18 28.68L477.66 26.808C477.862 26.008 478.129 25.2987 478.46 24.68C478.79 24.0613 479.169 23.5067 479.596 23.016C480.033 22.5147 480.508 22.056 481.02 21.64C481.532 21.2133 482.07 20.7973 482.636 20.392C482.38 20.52 482.118 20.6427 481.852 20.76C481.585 20.8773 481.318 20.984 481.052 21.08C480.785 21.1653 480.518 21.2347 480.252 21.288C479.985 21.3307 479.724 21.352 479.468 21.352ZM490.999 28.408C490.604 28.9627 490.364 29.4053 490.279 29.736C490.204 30.0667 490.268 30.3067 490.471 30.456C490.673 30.5947 490.993 30.6693 491.431 30.68L491.351 31C491.052 30.9787 490.743 30.968 490.423 30.968C490.103 30.9573 489.804 30.952 489.527 30.952C489.26 30.952 489.036 30.9573 488.855 30.968C488.673 30.968 488.497 30.9787 488.327 31L488.407 30.68C488.556 30.648 488.711 30.584 488.871 30.488C489.031 30.3813 489.207 30.232 489.399 30.04C489.591 29.848 489.793 29.5973 490.007 29.288L496.903 19.592C496.945 19.592 496.983 19.592 497.015 19.592C497.057 19.592 497.1 19.592 497.143 19.592L497.783 29.656C497.815 30.04 497.911 30.3067 498.071 30.456C498.241 30.5947 498.407 30.6693 498.567 30.68L498.503 31C498.289 30.9787 498.023 30.968 497.703 30.968C497.383 30.9573 497.068 30.952 496.759 30.952C496.375 30.952 496.012 30.9573 495.671 30.968C495.329 30.968 495.052 30.9787 494.839 31L494.903 30.68C495.415 30.6587 495.777 30.568 495.991 30.408C496.204 30.2373 496.3 29.88 496.279 29.336L495.847 21.432L495.959 21.4L490.999 28.408ZM492.279 26.392H496.951L496.823 26.712H491.991L492.279 26.392ZM511.349 25.352C511.936 25.3733 512.395 25.4 512.725 25.432C513.056 25.4533 513.317 25.4747 513.509 25.496C513.712 25.5173 513.904 25.544 514.085 25.576C514.405 25.64 514.683 25.72 514.917 25.816C515.152 25.9013 515.339 26.024 515.477 26.184C515.627 26.344 515.733 26.5467 515.797 26.792C515.861 27.0267 515.877 27.3253 515.845 27.688L515.717 29.32C515.696 29.64 515.712 29.944 515.765 30.232C515.829 30.5093 515.984 30.6427 516.229 30.632C516.421 30.6213 516.587 30.504 516.725 30.28C516.875 30.0453 517.024 29.7147 517.173 29.288L517.253 29.064H517.621L517.557 29.272C517.376 29.9227 517.136 30.4133 516.837 30.744C516.549 31.064 516.155 31.224 515.653 31.224C515.131 31.224 514.752 31.0693 514.517 30.76C514.283 30.44 514.181 30.0827 514.213 29.688L514.341 27.896C514.384 27.3307 514.341 26.8827 514.213 26.552C514.096 26.2213 513.813 25.9867 513.365 25.848C512.928 25.6987 512.245 25.624 511.317 25.624L511.349 25.352ZM511.189 25.624L511.269 25.304H511.989C512.757 25.304 513.403 25.2187 513.925 25.048C514.448 24.8667 514.864 24.616 515.173 24.296C515.493 23.976 515.723 23.608 515.861 23.192C516.011 22.776 516.085 22.328 516.085 21.848C516.085 21.2187 515.925 20.7547 515.605 20.456C515.296 20.1467 514.779 19.992 514.053 19.992C513.584 19.992 513.253 20.088 513.061 20.28C512.869 20.4613 512.699 20.824 512.549 21.368L510.437 29.304C510.352 29.6347 510.304 29.9013 510.293 30.104C510.283 30.296 510.357 30.44 510.517 30.536C510.688 30.6213 510.976 30.6693 511.381 30.68L511.317 31C511.072 30.9787 510.773 30.968 510.421 30.968C510.069 30.9573 509.707 30.952 509.333 30.952C508.917 30.952 508.523 30.9573 508.149 30.968C507.776 30.968 507.477 30.9787 507.253 31L507.317 30.68C507.68 30.6587 507.963 30.616 508.165 30.552C508.368 30.488 508.528 30.36 508.645 30.168C508.763 29.976 508.869 29.688 508.965 29.304L511.077 21.368C511.173 21.0267 511.216 20.76 511.205 20.568C511.205 20.3653 511.125 20.2213 510.965 20.136C510.805 20.04 510.528 19.992 510.133 19.992L510.213 19.672C510.363 19.6827 510.544 19.6933 510.757 19.704C510.971 19.704 511.2 19.7093 511.445 19.72C511.701 19.72 511.947 19.72 512.181 19.72C512.565 19.72 512.949 19.7147 513.333 19.704C513.728 19.6933 514.123 19.688 514.517 19.688C515.595 19.688 516.395 19.896 516.917 20.312C517.44 20.7173 517.701 21.2613 517.701 21.944C517.701 22.6587 517.451 23.2933 516.949 23.848C516.459 24.392 515.771 24.824 514.885 25.144C514.011 25.464 512.992 25.624 511.829 25.624H511.189ZM537.67 23.208C537.67 24.008 537.548 24.792 537.302 25.56C537.068 26.3173 536.721 27.0267 536.262 27.688C535.814 28.3387 535.276 28.9147 534.646 29.416C534.028 29.9067 533.334 30.296 532.566 30.584C531.798 30.8613 530.972 31 530.086 31C529.926 31 529.713 30.9947 529.446 30.984C529.18 30.9733 528.902 30.968 528.614 30.968C528.337 30.9573 528.081 30.952 527.846 30.952C527.601 30.952 527.356 30.9573 527.11 30.968C526.865 30.968 526.641 30.9733 526.438 30.984C526.236 30.984 526.065 30.9893 525.926 31L525.974 30.68C526.316 30.6587 526.582 30.616 526.774 30.552C526.977 30.488 527.137 30.36 527.254 30.168C527.372 29.976 527.478 29.688 527.574 29.304L529.67 21.368C529.766 21.016 529.814 20.744 529.814 20.552C529.814 20.3493 529.734 20.2107 529.574 20.136C529.414 20.0507 529.137 20.0027 528.742 19.992L528.79 19.672C528.94 19.6827 529.121 19.6933 529.334 19.704C529.548 19.7147 529.777 19.72 530.022 19.72C530.268 19.72 530.508 19.72 530.742 19.72C530.988 19.7093 531.26 19.704 531.558 19.704C531.857 19.6933 532.145 19.688 532.422 19.688C532.71 19.6773 532.956 19.672 533.158 19.672C534.673 19.672 535.804 19.976 536.55 20.584C537.297 21.1813 537.67 22.056 537.67 23.208ZM529.894 30.712C530.716 30.712 531.457 30.5733 532.118 30.296C532.78 30.0187 533.361 29.6293 533.862 29.128C534.364 28.6267 534.78 28.0453 535.11 27.384C535.452 26.7227 535.708 26.0027 535.878 25.224C536.049 24.4453 536.134 23.64 536.134 22.808C536.134 21.8587 535.868 21.1493 535.334 20.68C534.801 20.2 533.926 19.96 532.71 19.96C532.39 19.96 532.134 19.9973 531.942 20.072C531.75 20.1467 531.596 20.2853 531.478 20.488C531.361 20.68 531.254 20.9627 531.158 21.336L529.062 29.336C528.977 29.6453 528.929 29.9067 528.918 30.12C528.908 30.3227 528.972 30.472 529.11 30.568C529.26 30.664 529.521 30.712 529.894 30.712ZM548.656 29.304C548.56 29.688 548.517 29.976 548.528 30.168C548.539 30.36 548.629 30.488 548.8 30.552C548.971 30.616 549.237 30.6587 549.6 30.68L549.536 31C549.291 30.9787 548.981 30.968 548.608 30.968C548.245 30.9573 547.877 30.952 547.504 30.952C547.088 30.952 546.704 30.9573 546.352 30.968C546 30.968 545.707 30.9787 545.472 31L545.552 30.68C545.904 30.6587 546.176 30.616 546.368 30.552C546.571 30.488 546.731 30.36 546.848 30.168C546.965 29.976 547.072 29.688 547.168 29.304L549.28 21.368C549.387 20.9733 549.429 20.6853 549.408 20.504C549.387 20.312 549.291 20.184 549.12 20.12C548.96 20.0453 548.699 20.0027 548.336 19.992L548.416 19.672C548.629 19.6827 548.917 19.6933 549.28 19.704C549.643 19.7147 550.032 19.72 550.448 19.72C550.821 19.72 551.189 19.7147 551.552 19.704C551.925 19.6933 552.24 19.6827 552.496 19.672L552.416 19.992C552.053 20.0027 551.771 20.0453 551.568 20.12C551.365 20.184 551.205 20.312 551.088 20.504C550.981 20.6853 550.875 20.9733 550.768 21.368L548.656 29.304ZM567.437 31.08L563.709 20.552C563.709 20.552 563.688 20.5947 563.645 20.68C563.613 20.7547 563.57 20.8507 563.517 20.968C563.474 21.0747 563.432 21.1707 563.389 21.256C563.357 21.3307 563.341 21.368 563.341 21.368C563.426 20.9733 563.453 20.6853 563.421 20.504C563.4 20.312 563.293 20.184 563.101 20.12C562.92 20.0453 562.621 20.0027 562.205 19.992L562.285 19.672C562.456 19.6827 562.664 19.6933 562.909 19.704C563.165 19.7147 563.432 19.72 563.709 19.72C564.21 19.72 564.642 19.704 565.005 19.672L568.077 28.664C568.077 28.664 568.066 28.7227 568.045 28.84C568.034 28.9573 568.018 29.1067 567.997 29.288C567.976 29.4693 567.954 29.6667 567.933 29.88C567.912 30.0827 567.89 30.2747 567.869 30.456C567.848 30.6373 567.826 30.7867 567.805 30.904C567.794 31.0213 567.789 31.08 567.789 31.08H567.437ZM572.317 19.272C572.018 19.2827 571.762 19.3627 571.549 19.512C571.346 19.6507 571.165 19.8427 571.005 20.088C570.514 20.8133 570.013 22.088 569.501 23.912C568.989 25.736 568.418 28.1253 567.789 31.08L567.565 30.632C567.725 29.9173 567.896 29.1493 568.077 28.328C568.258 27.496 568.45 26.664 568.653 25.832C568.866 25 569.08 24.2053 569.293 23.448C569.517 22.6907 569.746 22.0133 569.981 21.416C570.226 20.808 570.472 20.3227 570.717 19.96C570.92 19.672 571.16 19.432 571.437 19.24C571.714 19.0373 572.05 18.936 572.445 18.936C572.818 18.936 573.069 19.0213 573.197 19.192C573.336 19.352 573.405 19.5387 573.405 19.752C573.405 20.0187 573.325 20.28 573.165 20.536C573.005 20.7813 572.77 20.904 572.461 20.904C572.226 20.904 572.066 20.8347 571.981 20.696C571.896 20.5573 571.853 20.4187 571.853 20.28C571.853 20.0987 571.901 19.9173 571.997 19.736C572.104 19.5547 572.226 19.4 572.365 19.272C572.354 19.272 572.344 19.272 572.333 19.272C572.333 19.272 572.328 19.272 572.317 19.272ZM559.389 31.848C559.677 31.8373 559.928 31.7573 560.141 31.608C560.365 31.4693 560.557 31.272 560.717 31.016C561.026 30.5253 561.336 29.7573 561.645 28.712C561.965 27.6667 562.285 26.4027 562.605 24.92C562.936 23.4373 563.266 21.8107 563.597 20.04L563.869 20.376C563.698 21.2507 563.517 22.1413 563.325 23.048C563.144 23.944 562.957 24.824 562.765 25.688C562.573 26.5413 562.376 27.336 562.173 28.072C561.97 28.808 561.768 29.448 561.565 29.992C561.362 30.5253 561.165 30.92 560.973 31.176C560.781 31.432 560.552 31.6613 560.285 31.864C560.029 32.0773 559.688 32.184 559.261 32.184C558.888 32.184 558.637 32.0987 558.509 31.928C558.37 31.768 558.301 31.576 558.301 31.352C558.301 31.0853 558.381 30.8293 558.541 30.584C558.701 30.3387 558.936 30.216 559.245 30.216C559.49 30.216 559.65 30.2853 559.725 30.424C559.81 30.5627 559.853 30.7013 559.853 30.84C559.853 31.0213 559.8 31.2027 559.693 31.384C559.597 31.5653 559.48 31.72 559.341 31.848C559.352 31.848 559.362 31.848 559.373 31.848C559.373 31.848 559.378 31.848 559.389 31.848Z" fill="#C3AE96"/>
<circle cx="305" cy="104" r="12" fill="#6B886F" fill-opacity="0.8"/>
<circle cx="305" cy="132" r="12" fill="#6B886F" fill-opacity="0.8"/>
<circle cx="305" cy="160" r="12" fill="#6B886F" fill-opacity="0.8"/>
<circle cx="305" cy="188" r="12" fill="#6B886F" fill-opacity="0.8"/>
<circle cx="305" cy="216" r="12" fill="#6B886F" fill-opacity="0.8"/>
<circle cx="925" cy="237" r="12" transform="rotate(90 925 237)" fill="#6B886F" fill-opacity="0.8"/>
<circle cx="897" cy="237" r="12" transform="rotate(90 897 237)" fill="#6B886F" fill-opacity="0.8"/>
<circle cx="869" cy="237" r="12" transform="rotate(90 869 237)" fill="#6B886F" fill-opacity="0.8"/>
<circle cx="841" cy="237" r="12" transform="rotate(90 841 237)" fill="#6B886F" fill-opacity="0.8"/>
<circle cx="813" cy="237" r="12" transform="rotate(90 813 237)" fill="#6B886F" fill-opacity="0.8"/>
<circle cx="468" cy="650" r="12" fill="#6B886F" fill-opacity="0.8"/>
<circle cx="468" cy="678" r="12" fill="#6B886F" fill-opacity="0.8"/>
<circle cx="468" cy="706" r="12" fill="#6B886F" fill-opacity="0.8"/>
<circle cx="468" cy="734" r="12" fill="#6B886F" fill-opacity="0.8"/>
<circle cx="753" cy="650" r="12" fill="#6B886F" fill-opacity="0.8"/>
<circle cx="753" cy="678" r="12" fill="#6B886F" fill-opacity="0.8"/>
<circle cx="753" cy="706" r="12" fill="#6B886F" fill-opacity="0.8"/>
<circle cx="753" cy="734" r="12" fill="#6B886F" fill-opacity="0.8"/>
</svg>
